<?xml version="1.0" encoding="iso-8859-1"?>
<!-- Generator: Adobe Illustrator 19.0.0, SVG Export Plug-In . SVG Version: 6.00 Build 0)  -->
<svg version="1.1" id="Capa_1" xmlns="http://www.w3.org/2000/svg" xmlns:xlink="http://www.w3.org/1999/xlink" x="0px" y="0px"
	 viewBox="0 0 512 512" style="enable-background:new 0 0 512 512;" xml:space="preserve">
<path style="fill:#10BB67;" d="M270.999,392v105c0,8.399-6.599,15-15,15c-8.401,0-14.8-6.601-14.8-15V392c0-8.401,6.399-15,14.8-15
	C264.4,377,270.999,383.599,270.999,392z"/>
<g>
	<path style="fill:#0CA656;" d="M270.999,392v105c0,8.399-6.599,15-15,15V377C264.4,377,270.999,383.599,270.999,392z"/>
	<path style="fill:#0CA656;" d="M244.837,382.083c3.662-4.614,36.152-47.036,49.893-111.987c0.586-2.725,1.904-5.229,3.809-7.236
		c41.689-50.742,100.43-84.888,165-95.654c10.645-1.548,18.891,7.384,17.256,17.285c-11.924,70.986-50.421,133.022-108.34,174.683
		c-2.549,1.846-5.625,2.827-8.76,2.827c-47.813,0-86.396,31.099-97.148,40.62C253.036,414.598,233.6,396.248,244.837,382.083z"/>
</g>
<path style="fill:#10BB67;" d="M255.414,406.399c-3.545,0-6.919-1.26-9.761-3.779C234.901,393.099,196.117,362,151,362
	c-3.135,0-8.906-0.981-11.455-2.827c-57.921-41.66-96.416-103.696-108.34-174.683c-1.644-9.953,6.755-18.831,17.256-17.285
	c64.57,10.767,123.311,44.912,165.439,96.167c1.523,1.86,2.871,4.365,3.369,6.724c13.74,64.951,46.23,107.373,49.893,111.987
	C274.967,391.922,267.921,406.399,255.414,406.399z"/>
<path style="fill:#32D736;" d="M476.499,402.8c-2.098,2.1-52.2,49.2-115.499,49.2c-47.102,0-87.001-26.1-105-40.501
	C238,425.9,198.635,452,150.999,452C87.7,452,37.599,404.9,35.5,402.8c-6.002-6-6.002-15.901,0.297-21.599
	C37.599,379.1,86.202,333.5,148,332h2.999c21.899,0,42.297,5.7,60,13.5c-8.701-18.602-20.656-55.88-23.401-69.6
	c-4.213-21.059-6.599-42.301-6.599-63.9c0-111,60-202.4,62.703-206c2.695-4.2,7.5-6,12.297-6c4.797,0,9.602,1.8,12.297,6
	c2.703,3.6,62.703,94.999,62.703,206c0,21.599-2.239,46.002-7.5,66.599c-6.539,25.599-13.799,48.3-22.5,66.901
	c17.703-7.8,38.101-13.5,60-13.5h2.999c61.798,1.5,110.402,47.1,112.203,49.2C482.501,386.899,482.501,396.799,476.499,402.8z"/>
<path style="fill:#10BB67;" d="M476.499,402.8c-2.098,2.1-52.2,49.2-115.499,49.2c-47.102,0-87.001-26.1-105-40.501V0
	c4.797,0,9.602,1.8,12.297,6C271,9.6,331,100.999,331,212c0,21.599-2.102,42.9-6.599,63.9c-5.236,24.469-14.7,50.999-23.401,69.6
	c17.703-7.8,38.101-13.5,60-13.5h2.999c61.798,1.5,110.402,47.1,112.203,49.2C482.501,386.899,482.501,396.799,476.499,402.8z"/>
<g>
</g>
<g>
</g>
<g>
</g>
<g>
</g>
<g>
</g>
<g>
</g>
<g>
</g>
<g>
</g>
<g>
</g>
<g>
</g>
<g>
</g>
<g>
</g>
<g>
</g>
<g>
</g>
<g>
</g>
</svg>
